# xmcd
#
# Track frame offsets:
#	150
#	9915
#	19583
#	31051
#	41094
#	51804
#	63744
#	77259
#	90159
#	101994
#	113649
#
# Disc length: 1646 seconds
#
# Revision: 1
# Processed by: cddbd v1.5.2PL0 Copyright (c) Steve Scherf et al.
# Submitted via: audiograbber 1.83.01
#
DISCID=75066c0b
DTITLE=Dave Dudley - The Best Of
DYEAR=1973
DGENRE=Country
TTITLE0=Truck Drivin' Son-Of-A-Gun
TTITLE1=Please Let Me Prove ( My Love For You )
TTITLE2=My Kind Of Love
TTITLE3=Six Days On The Road
TTITLE4=One More Mile
TTITLE5=What We're Fighting For
TTITLE6=George ( And The North Woods )
TTITLE7=There Ain't No Easy Run
TTITLE8=Trucker's Prayer
TTITLE9=Anything Leaving Twon Today
TTITLE10=Last Day In The Mines
EXTD=
EXTT0=
EXTT1=
EXTT2=
EXTT3=
EXTT4=
EXTT5=
EXTT6=
EXTT7=
EXTT8=
EXTT9=
EXTT10=
PLAYORDER=
